<?xml version="1.0" standalone="no"?>
<!DOCTYPE svg PUBLIC "-//W3C//DTD SVG 20010904//EN"
 "http://www.w3.org/TR/2001/REC-SVG-20010904/DTD/svg10.dtd">
<svg version="1.0" xmlns="http://www.w3.org/2000/svg"
 width="133.000000pt" height="82.000000pt" viewBox="0 0 133.000000 82.000000"
 preserveAspectRatio="xMidYMid meet">

<g transform="translate(0.000000,82.000000) scale(0.100000,-0.100000)"
fill="#000000" stroke="none">
<path d="M155 600 c3 -6 -4 -10 -16 -10 -12 0 -19 -3 -16 -7 4 -3 1 -13 -6
-21 -11 -14 -20 -177 -10 -195 2 -4 34 25 71 64 83 89 128 113 196 106 28 -3
65 -12 81 -21 47 -25 55 -21 55 27 0 40 -2 43 -40 55 -49 15 -324 17 -315 2z"/>
<path d="M811 561 c-40 -38 -42 -86 -5 -130 21 -26 33 -31 67 -31 23 0 50 7
60 14 18 14 24 66 7 66 -5 0 -10 -13 -10 -29 0 -17 -6 -31 -16 -35 -58 -22
-124 20 -124 80 0 38 40 75 88 82 40 5 40 12 0 12 -26 0 -45 -8 -67 -29z"/>
<path d="M1112 493 c1 -54 3 -81 5 -60 2 20 7 37 11 37 3 0 24 -17 45 -37 27
-26 36 -31 28 -16 -6 12 -16 25 -21 28 -14 8 -13 35 1 35 15 0 38 31 39 51 0
28 -39 59 -75 59 l-35 0 2 -97z m78 67 c30 -30 13 -65 -31 -65 -30 0 -34 3
-37 28 -2 16 -1 35 2 43 8 20 43 17 66 -6z"/>
<path d="M646 554 c-4 -15 -5 -29 -1 -32 3 -3 5 2 5 11 0 30 27 18 45 -20 17
-35 17 -37 -1 -50 -17 -12 -16 -13 5 -13 13 0 31 -10 42 -22 10 -13 0 16 -23
65 -43 90 -61 105 -72 61z"/>
<path d="M980 497 c0 -48 4 -87 9 -87 8 0 4 160 -5 169 -2 2 -4 -35 -4 -82z"/>
<path d="M1054 490 c0 -52 1 -74 3 -47 2 26 2 68 0 95 -2 26 -3 4 -3 -48z"/>
<path d="M918 563 c7 -3 16 -2 19 1 4 3 -2 6 -13 5 -11 0 -14 -3 -6 -6z"/>
<path d="M606 473 c-11 -27 -24 -51 -30 -55 -8 -5 -7 -8 1 -8 7 0 17 9 23 20
7 12 21 20 37 20 23 0 25 2 11 13 -9 6 -18 22 -20 35 -2 18 -7 13 -22 -25z"/>
<path d="M314 435 c-28 -14 -81 -52 -117 -85 -36 -33 -70 -60 -75 -60 -6 0
-13 12 -15 28 -3 22 -4 21 -6 -10 0 -20 7 -50 17 -67 l17 -31 167 0 c211 0
208 -2 208 136 0 57 -4 95 -11 100 -6 3 -39 8 -73 11 -50 3 -70 -1 -112 -22z"/>
</g>
</svg>
